HIERARCHY
ROOT Pelvis
{
	OFFSET 0.000000 0.000000 0.000000
	CHANNELS 6 Xposition Yposition Zposition Xrotation Yrotation Zrotation
	JOINT LeftUpLeg_virtual
	{
		OFFSET 0.000000 0.000000 0.000000
		CHANNELS 3 Xrotation Yrotation Zrotation
		JOINT LeftUpLeg
		{
			OFFSET 18.735201 -5.666702 -4.541200
			CHANNELS 3 Xrotation Yrotation Zrotation
			JOINT LeftLeg
			{
				OFFSET -0.021200 -31.938179 0.493100
				CHANNELS 3 Xrotation Yrotation Zrotation
				JOINT LeftFoot
				{
					OFFSET 0.021200 -31.938179 -4.336299
					CHANNELS 3 Xrotation Yrotation Zrotation
					JOINT LeftToeBase
					{
						OFFSET 0.943001 -26.722000 15.023500
						CHANNELS 3 Xrotation Yrotation Zrotation
						End Site
						{
							OFFSET 0 0 0
						}
					}
				}
			}
		}
	}
	JOINT RightUpLeg_virtual
	{
		OFFSET 0.000000 0.000000 0.000000
		CHANNELS 3 Xrotation Yrotation Zrotation
		JOINT RightUpLeg
		{
			OFFSET -18.735201 -5.666702 -4.541200
			CHANNELS 3 Xrotation Yrotation Zrotation
			JOINT RightLeg
			{
				OFFSET 0.018946 -31.938133 0.493100
				CHANNELS 3 Xrotation Yrotation Zrotation
				JOINT RightFoot
				{
					OFFSET -0.018946 -31.938126 -4.336299
					CHANNELS 3 Xrotation Yrotation Zrotation
					JOINT RightToeBase
					{
						OFFSET -0.943001 -26.722004 15.023500
						CHANNELS 3 Xrotation Yrotation Zrotation
						End Site
						{
							OFFSET 0 0 0
						}
					}
				}
			}
		}
	}
	JOINT Hips_virtual
	{
		OFFSET 0.000000 0.000000 0.000000
		CHANNELS 3 Xrotation Yrotation Zrotation
		JOINT Hips
		{
			OFFSET -0.000000 -0.000000 -0.000000
			CHANNELS 3 Xrotation Yrotation Zrotation
			JOINT Spine
			{
				OFFSET 0.000000 10.199997 -0.299500
				CHANNELS 3 Xrotation Yrotation Zrotation
				JOINT Spine1
				{
					OFFSET 0.000000 11.900002 -1.516600
					CHANNELS 3 Xrotation Yrotation Zrotation
					JOINT Spine2
					{
						OFFSET 0.000000 13.600006 -2.842500
						CHANNELS 3 Xrotation Yrotation Zrotation
						JOINT Neck_virtual
						{
							OFFSET 0.000000 0.000000 0.000000
							CHANNELS 3 Xrotation Yrotation Zrotation
							JOINT Neck
							{
								OFFSET 0.000000 9.624100 -2.890100
								CHANNELS 3 Xrotation Yrotation Zrotation
								JOINT Head
								{
									OFFSET 0.000000 14.068802 -1.351900
									CHANNELS 3 Xrotation Yrotation Zrotation
									End Site
									{
										OFFSET 0 0 0
									}
								}
							}
						}
						JOINT LeftShoulder_virtual
						{
							OFFSET 0.000000 0.000000 0.000000
							CHANNELS 3 Xrotation Yrotation Zrotation
							JOINT LeftShoulder
							{
								OFFSET 15.263000 10.923401 -0.547700
								CHANNELS 3 Xrotation Yrotation Zrotation
								JOINT LeftArm
								{
									OFFSET 25.438599 -2.830597 -13.032500
									CHANNELS 3 Xrotation Yrotation Zrotation
									JOINT LeftForeArm
									{
										OFFSET 29.960503 0.000000 0.000000
										CHANNELS 3 Xrotation Yrotation Zrotation
										JOINT LeftHand
										{
											OFFSET 27.849251 0.000000 0.000000
											CHANNELS 3 Xrotation Yrotation Zrotation
											End Site
											{
												OFFSET 0 0 0
											}
										}
									}
								}
							}
						}
						JOINT RightShoulder_virtual
						{
							OFFSET 0.000000 0.000000 0.000000
							CHANNELS 3 Xrotation Yrotation Zrotation
							JOINT RightShoulder
							{
								OFFSET -15.263000 10.923401 -0.547700
								CHANNELS 3 Xrotation Yrotation Zrotation
								JOINT RightArm
								{
									OFFSET -25.438599 -2.830597 -13.032500
									CHANNELS 3 Xrotation Yrotation Zrotation
									JOINT RightForeArm
									{
										OFFSET -29.960503 0.000000 0.000000
										CHANNELS 3 Xrotation Yrotation Zrotation
										JOINT RightHand
										{
											OFFSET -27.849251 0.000000 0.000000
											CHANNELS 3 Xrotation Yrotation Zrotation
											End Site
											{
												OFFSET 0 0 0
											}
										}
									}
								}
							}
						}
					}
				}
			}
		}
	}
}
MOTION
Frames: 8
Frame Time: 0.03333333
-2.981803 81.031403 12.251846 0.000000 0.000000 0.000000 2.981689 -45.869498 3.707842 -41.145381 5.727642 20.675819 54.323729 -13.859928 2.163270 -21.557554 -7.864387 -23.413559 0.000000 0.000000 0.000000 1.311034 -44.931146 3.043074 -21.261616 -5.669985 -35.805419 63.681863 -16.368593 2.171037 -29.807222 -1.349969 28.441184 0.000000 0.000000 0.000000 2.270661 -45.324708 3.612823 -0.819196 0.083708 -0.032550 9.187709 10.485644 -7.303014 3.116326 3.275678 0.149924 0.000000 0.000000 0.000000 5.047768 4.389407 0.747691 -2.291617 1.035707 -1.819656 0.000000 0.000000 0.000000 7.672463 3.520824 1.049167 -3.877411 -4.675533 -5.914993 15.855198 12.619285 -45.591506 -176.583599 -43.711086 -165.789851 0.000000 0.000000 0.000000 0.969220 4.932593 -0.565914 5.152383 12.051170 1.377105 -63.653572 23.768763 71.902344 124.817800 72.963694 -132.712133 0.000000 0.000000 0.000000 
-2.390274 81.301559 12.512360 0.000000 0.000000 0.000000 3.401267 -51.398785 3.918747 -37.620542 6.881444 20.363883 54.790063 -12.820557 3.036821 -25.139177 -5.399813 -20.927257 0.000000 0.000000 0.000000 1.827737 -50.063982 3.408364 -25.333892 1.052876 -34.855043 66.441116 -15.824018 1.184276 -28.896925 1.103890 27.540352 0.000000 0.000000 0.000000 2.650377 -50.698312 3.865779 -0.835986 0.076486 0.007690 9.602197 10.353763 -7.218028 2.962734 2.601018 -0.219383 0.000000 0.000000 0.000000 4.777567 3.978360 0.323492 -2.091268 1.987505 -1.498134 0.000000 0.000000 0.000000 7.939079 3.146709 0.754567 -3.525953 -3.575672 -4.168698 11.975297 18.206916 -41.244135 -175.843398 -45.579574 -163.710496 0.000000 0.000000 0.000000 0.648546 4.547636 -0.805431 5.836710 9.224091 3.529121 -63.078969 27.897945 77.517210 134.861361 69.615521 -143.296508 0.000000 0.000000 0.000000 
-1.981125 81.426178 12.633781 0.000000 0.000000 0.000000 3.639421 -56.873763 3.583556 -35.283600 7.154458 20.090054 56.690854 -11.166542 4.293125 -27.928123 -2.939845 -17.945089 0.000000 0.000000 0.000000 2.722614 -55.474148 3.492368 -28.897099 5.810451 -32.641235 67.071337 -15.742765 0.609512 -29.304892 2.672796 26.887665 0.000000 0.000000 0.000000 3.231590 -55.902861 3.708912 -0.860425 0.087580 0.017944 9.941634 9.549320 -6.769806 2.888944 1.420649 -0.705536 0.000000 0.000000 0.000000 4.246691 3.100661 -0.129444 -2.000126 2.765967 -0.959709 0.000000 0.000000 0.000000 8.247549 2.302314 0.332930 -3.073415 -1.899114 -1.446616 1.287421 20.075939 -34.629879 -172.353758 -54.129181 -158.429284 0.000000 0.000000 0.000000 0.385780 3.627710 -1.235446 6.696451 6.782410 4.888590 -62.199172 32.477013 81.078696 142.095529 65.320337 -150.687237 0.000000 0.000000 0.000000 
-1.768071 81.399269 12.726311 0.000000 0.000000 0.000000 3.622258 -61.022460 2.681131 -34.568923 6.714382 20.115998 59.612511 -9.381720 5.679439 -29.942310 -0.830299 -15.549462 0.000000 0.000000 0.000000 3.664240 -59.890370 3.167076 -31.044306 8.042059 -30.053498 65.927431 -16.046800 0.296242 -30.234515 3.418124 27.102232 0.000000 0.000000 0.000000 3.744214 -59.771334 3.075492 -0.867835 0.111744 -0.015351 9.976240 8.049328 -6.029016 2.840702 -0.135468 -1.169565 0.000000 0.000000 0.000000 3.619124 1.819988 -0.495853 -1.932820 3.277914 -0.288832 0.000000 0.000000 0.000000 8.555553 1.016721 -0.041443 -2.538011 -0.018547 1.468656 -13.848928 16.128435 -28.746685 -156.879077 -69.518348 -140.927375 0.000000 0.000000 0.000000 0.273816 2.232690 -1.745979 7.663094 4.743052 5.071187 -60.473443 36.388482 83.342433 145.844278 61.014155 -154.554313 0.000000 0.000000 0.000000 
-1.765435 81.237953 12.734612 0.000000 0.000000 0.000000 3.427825 -62.946170 1.456703 -35.303277 5.707101 20.443139 62.261949 -8.113499 6.922999 -31.417555 0.522830 -14.971705 0.000000 0.000000 0.000000 4.370674 -62.332880 2.450100 -31.041089 7.827270 -27.823250 63.414386 -16.568912 -0.041272 -30.469057 3.635651 28.379643 0.000000 0.000000 0.000000 4.170192 -61.590971 2.179650 -0.872403 0.136575 -0.057341 9.652293 6.162083 -5.326722 2.897078 -1.652848 -1.529237 0.000000 0.000000 0.000000 3.047917 0.442845 -0.666570 -1.820938 3.451545 0.380975 0.000000 0.000000 0.000000 8.689739 -0.399094 -0.303949 -2.008003 1.655595 3.887549 -28.598808 8.544124 -27.559933 -79.109764 -77.544244 -61.316801 0.000000 0.000000 0.000000 0.359590 0.723140 -2.185043 8.461475 3.495453 4.509238 -56.805331 38.801109 84.242686 147.352753 57.059496 -156.389749 0.000000 0.000000 0.000000 
-1.908955 81.049988 12.793423 0.000000 0.000000 0.000000 3.404048 -62.258294 0.473139 -37.308423 4.514699 20.883315 63.819676 -7.535961 7.743630 -31.719812 1.099904 -16.186034 0.000000 0.000000 0.000000 4.742178 -62.112381 1.532192 -29.322965 5.963048 -26.421878 60.961228 -17.106704 -0.487343 -30.157485 3.316294 30.229994 0.000000 0.000000 0.000000 4.514433 -60.911217 1.327846 -0.868610 0.137666 -0.075333 8.975484 4.430368 -4.993039 3.012281 -2.669672 -1.755769 0.000000 0.000000 0.000000 2.756658 -0.560334 -0.626644 -1.641218 3.239445 0.954628 0.000000 0.000000 0.000000 8.564525 -1.467423 -0.422292 -1.532195 2.627720 5.052895 -39.143257 1.847020 -31.540683 -39.853273 -66.436185 -21.179780 0.000000 0.000000 0.000000 0.680690 -0.373125 -2.443663 8.930491 3.645629 3.792009 -50.302472 39.147021 82.185371 148.240950 52.996876 -157.687785 0.000000 0.000000 0.000000 
-2.145959 80.808067 12.954334 0.000000 0.000000 0.000000 3.695922 -59.246529 0.017419 -40.440399 3.435262 21.301709 64.720543 -7.322594 7.942167 -30.697028 1.097621 -17.992535 0.000000 0.000000 0.000000 4.703259 -59.215268 0.663073 -26.638156 3.064473 -25.993118 59.408494 -17.728844 -0.783575 -29.841933 2.241201 31.797676 0.000000 0.000000 0.000000 4.819879 -57.762637 0.778495 -0.837931 0.118565 -0.065055 8.159375 3.356385 -5.160302 3.227448 -2.848690 -1.837002 0.000000 0.000000 0.000000 2.882427 -0.817053 -0.424690 -1.360259 2.636134 1.324026 0.000000 0.000000 0.000000 8.223389 -1.791632 -0.441153 -1.171362 2.696913 4.679918 -42.448628 -1.104709 -38.163812 -35.543662 -64.949546 -17.437709 0.000000 0.000000 0.000000 1.208425 -0.647946 -2.481876 9.119774 5.396522 3.082067 -41.550353 37.138928 76.183862 148.979430 49.237358 -158.750972 0.000000 0.000000 0.000000 
-2.452311 80.535805 13.129929 0.000000 0.000000 0.000000 4.172429 -54.567966 0.050868 -44.221998 2.522790 21.447274 65.027260 -7.264663 7.518184 -28.582468 0.600970 -19.517313 0.000000 0.000000 0.000000 4.598086 -54.306868 0.211601 -23.612977 -0.772949 -26.263855 58.560082 -18.484751 -0.702120 -30.234048 0.344452 32.627284 0.000000 0.000000 0.000000 5.032187 -52.851673 0.585007 -0.808711 0.098541 -0.022507 7.530430 3.258053 -5.633726 3.540111 -2.123635 -1.858077 0.000000 0.000000 0.000000 3.297626 -0.150103 -0.173397 -1.031264 1.701833 1.438006 0.000000 0.000000 0.000000 7.728652 -1.203508 -0.461796 -1.001943 1.917838 3.263602 -37.767084 -1.231410 -45.315693 -50.139616 -75.757726 -33.824763 0.000000 0.000000 0.000000 1.900908 0.059134 -2.369803 9.168527 8.746169 2.096068 -33.407845 32.867557 66.863044 148.890706 46.955307 -158.723597 0.000000 0.000000 0.000000 
